<mxfile host="65bd71144e">
    <diagram id="SEuTga2kHwQlcDlWTMwf" name="add">
        <mxGraphModel dx="1941" dy="393" grid="1" gridSize="10" guides="1" tooltips="1" connect="1" arrows="1" fold="1" page="1" pageScale="1" pageWidth="850" pageHeight="1100" math="0" shadow="0">
            <root>
                <mxCell id="0"/>
                <mxCell id="1" parent="0"/>
                <mxCell id="152" value="" style="rounded=0;whiteSpace=wrap;html=1;fontSize=12;" parent="1" vertex="1">
                    <mxGeometry x="-820" y="1060" width="670" height="650" as="geometry"/>
                </mxCell>
                <mxCell id="69" value="" style="rounded=0;whiteSpace=wrap;html=1;align=left;" parent="1" vertex="1">
                    <mxGeometry x="-820" y="140" width="570" height="560" as="geometry"/>
                </mxCell>
                <mxCell id="47" value="" style="edgeStyle=none;html=1;" parent="1" source="2" target="20" edge="1">
                    <mxGeometry relative="1" as="geometry"/>
                </mxCell>
                <mxCell id="2" value="validate input" style="whiteSpace=wrap;html=1;" parent="1" vertex="1">
                    <mxGeometry x="-410" y="40" width="120" height="60" as="geometry"/>
                </mxCell>
                <mxCell id="101" value="" style="edgeStyle=none;html=1;fontSize=12;" parent="1" source="16" target="100" edge="1">
                    <mxGeometry relative="1" as="geometry"/>
                </mxCell>
                <mxCell id="16" value="make user select leaderboard category and variables" style="whiteSpace=wrap;html=1;" parent="1" vertex="1">
                    <mxGeometry x="-410" y="850" width="120" height="60" as="geometry"/>
                </mxCell>
                <mxCell id="48" style="edgeStyle=none;html=1;entryX=1;entryY=0.5;entryDx=0;entryDy=0;" parent="1" source="20" target="22" edge="1">
                    <mxGeometry relative="1" as="geometry"/>
                </mxCell>
                <mxCell id="50" style="edgeStyle=none;html=1;entryX=0.5;entryY=0;entryDx=0;entryDy=0;" parent="1" source="20" target="49" edge="1">
                    <mxGeometry relative="1" as="geometry"/>
                </mxCell>
                <mxCell id="20" value="did the user&lt;br&gt;provide a role?" style="rhombus;whiteSpace=wrap;html=1;" parent="1" vertex="1">
                    <mxGeometry x="-410" y="180" width="120" height="80" as="geometry"/>
                </mxCell>
                <mxCell id="52" value="" style="edgeStyle=none;html=1;entryX=0.5;entryY=0;entryDx=0;entryDy=0;" parent="1" source="22" target="53" edge="1">
                    <mxGeometry relative="1" as="geometry">
                        <mxPoint x="-580" y="310" as="targetPoint"/>
                    </mxGeometry>
                </mxCell>
                <mxCell id="22" value="calculate new role&lt;br&gt;position" style="whiteSpace=wrap;html=1;" parent="1" vertex="1">
                    <mxGeometry x="-640" y="190" width="120" height="60" as="geometry"/>
                </mxCell>
                <mxCell id="41" value="Yes" style="text;html=1;resizable=0;autosize=1;align=center;verticalAlign=middle;points=[];fillColor=none;strokeColor=none;rounded=0;" parent="1" vertex="1">
                    <mxGeometry x="-470" y="190" width="30" height="20" as="geometry"/>
                </mxCell>
                <mxCell id="62" value="" style="edgeStyle=none;html=1;" parent="1" source="42" target="61" edge="1">
                    <mxGeometry relative="1" as="geometry"/>
                </mxCell>
                <mxCell id="66" value="" style="edgeStyle=none;html=1;" parent="1" source="42" target="65" edge="1">
                    <mxGeometry relative="1" as="geometry"/>
                </mxCell>
                <mxCell id="42" value="does the bot&lt;br&gt;have permission?" style="rhombus;whiteSpace=wrap;html=1;" parent="1" vertex="1">
                    <mxGeometry x="-420" y="560" width="140" height="100" as="geometry"/>
                </mxCell>
                <mxCell id="45" value="No" style="text;html=1;resizable=0;autosize=1;align=center;verticalAlign=middle;points=[];fillColor=none;strokeColor=none;rounded=0;" parent="1" vertex="1">
                    <mxGeometry x="-390" y="320" width="30" height="20" as="geometry"/>
                </mxCell>
                <mxCell id="46" value="Yes" style="text;html=1;resizable=0;autosize=1;align=center;verticalAlign=middle;points=[];fillColor=none;strokeColor=none;rounded=0;" parent="1" vertex="1">
                    <mxGeometry x="-390" y="670" width="30" height="20" as="geometry"/>
                </mxCell>
                <mxCell id="58" value="" style="edgeStyle=none;html=1;" parent="1" source="49" target="42" edge="1">
                    <mxGeometry relative="1" as="geometry"/>
                </mxCell>
                <mxCell id="49" value="get role position" style="whiteSpace=wrap;html=1;" parent="1" vertex="1">
                    <mxGeometry x="-410" y="420" width="120" height="60" as="geometry"/>
                </mxCell>
                <mxCell id="55" value="" style="edgeStyle=none;html=1;" parent="1" source="53" target="54" edge="1">
                    <mxGeometry relative="1" as="geometry"/>
                </mxCell>
                <mxCell id="57" value="" style="edgeStyle=none;html=1;" parent="1" source="53" target="56" edge="1">
                    <mxGeometry relative="1" as="geometry"/>
                </mxCell>
                <mxCell id="53" value="does the server have &lt;br&gt;an above role set?" style="rhombus;whiteSpace=wrap;html=1;" parent="1" vertex="1">
                    <mxGeometry x="-657.5" y="290" width="155" height="100" as="geometry"/>
                </mxCell>
                <mxCell id="60" style="edgeStyle=none;html=1;entryX=0.5;entryY=0;entryDx=0;entryDy=0;" parent="1" source="54" target="42" edge="1">
                    <mxGeometry relative="1" as="geometry">
                        <mxPoint x="-380" y="590" as="targetPoint"/>
                    </mxGeometry>
                </mxCell>
                <mxCell id="54" value="set position to bottom" style="whiteSpace=wrap;html=1;" parent="1" vertex="1">
                    <mxGeometry x="-720" y="420" width="120" height="60" as="geometry"/>
                </mxCell>
                <mxCell id="59" style="edgeStyle=none;html=1;" parent="1" source="56" edge="1">
                    <mxGeometry relative="1" as="geometry">
                        <mxPoint x="-350" y="560" as="targetPoint"/>
                    </mxGeometry>
                </mxCell>
                <mxCell id="56" value="set position to above the above role" style="whiteSpace=wrap;html=1;" parent="1" vertex="1">
                    <mxGeometry x="-560" y="420" width="120" height="60" as="geometry"/>
                </mxCell>
                <mxCell id="61" value="notify user and exit" style="whiteSpace=wrap;html=1;" parent="1" vertex="1">
                    <mxGeometry x="-610" y="580" width="120" height="60" as="geometry"/>
                </mxCell>
                <mxCell id="63" value="No" style="text;html=1;resizable=0;autosize=1;align=center;verticalAlign=middle;points=[];fillColor=none;strokeColor=none;rounded=0;" parent="1" vertex="1">
                    <mxGeometry x="-460" y="620" width="30" height="20" as="geometry"/>
                </mxCell>
                <mxCell id="67" value="" style="edgeStyle=none;html=1;" parent="1" source="65" target="16" edge="1">
                    <mxGeometry relative="1" as="geometry"/>
                </mxCell>
                <mxCell id="65" value="get game info from speedrun.com" style="whiteSpace=wrap;html=1;" parent="1" vertex="1">
                    <mxGeometry x="-410" y="740" width="120" height="60" as="geometry"/>
                </mxCell>
                <mxCell id="71" value="&lt;h1&gt;&lt;font style=&quot;font-size: 12px&quot;&gt;get the associated role info&lt;/font&gt;&lt;/h1&gt;&lt;div&gt;can the bot make a role with current settings?&lt;/div&gt;&lt;div&gt;&lt;br&gt;&lt;/div&gt;&lt;div&gt;&lt;br&gt;&lt;/div&gt;&lt;div&gt;done before choosing leaderboard so we can exit as soon as possible if there's an issue&lt;/div&gt;" style="text;html=1;strokeColor=none;fillColor=none;spacing=5;spacingTop=-20;whiteSpace=wrap;overflow=hidden;rounded=0;" parent="1" vertex="1">
                    <mxGeometry x="-810" y="150" width="180" height="190" as="geometry"/>
                </mxCell>
                <mxCell id="103" value="" style="edgeStyle=none;html=1;fontSize=12;entryX=0.5;entryY=0;entryDx=0;entryDy=0;" parent="1" source="100" target="104" edge="1">
                    <mxGeometry relative="1" as="geometry">
                        <mxPoint x="-350" y="1090" as="targetPoint"/>
                    </mxGeometry>
                </mxCell>
                <mxCell id="100" value="get the name of the leaderboard" style="whiteSpace=wrap;html=1;" parent="1" vertex="1">
                    <mxGeometry x="-410" y="960" width="120" height="60" as="geometry"/>
                </mxCell>
                <mxCell id="108" value="" style="edgeStyle=none;html=1;fontSize=12;" parent="1" source="104" target="107" edge="1">
                    <mxGeometry relative="1" as="geometry"/>
                </mxCell>
                <mxCell id="124" value="" style="edgeStyle=none;html=1;fontSize=12;" parent="1" source="104" target="123" edge="1">
                    <mxGeometry relative="1" as="geometry"/>
                </mxCell>
                <mxCell id="104" value="does this &lt;br&gt;leaderboard already exist?" style="rhombus;whiteSpace=wrap;html=1;" parent="1" vertex="1">
                    <mxGeometry x="-420" y="1070" width="140" height="100" as="geometry"/>
                </mxCell>
                <mxCell id="113" value="" style="edgeStyle=none;html=1;fontSize=12;entryX=1;entryY=0.5;entryDx=0;entryDy=0;" parent="1" source="107" target="114" edge="1">
                    <mxGeometry relative="1" as="geometry">
                        <mxPoint x="-570" y="1220" as="targetPoint"/>
                    </mxGeometry>
                </mxCell>
                <mxCell id="118" value="" style="edgeStyle=none;html=1;fontSize=12;" parent="1" source="107" target="117" edge="1">
                    <mxGeometry relative="1" as="geometry"/>
                </mxCell>
                <mxCell id="107" value="does this guild &lt;br&gt;already track this leaderboard?" style="rhombus;whiteSpace=wrap;html=1;" parent="1" vertex="1">
                    <mxGeometry x="-630" y="1070" width="140" height="100" as="geometry"/>
                </mxCell>
                <mxCell id="109" value="Yes" style="text;html=1;resizable=0;autosize=1;align=center;verticalAlign=middle;points=[];fillColor=none;strokeColor=none;rounded=0;" parent="1" vertex="1">
                    <mxGeometry x="-470" y="1090" width="30" height="20" as="geometry"/>
                </mxCell>
                <mxCell id="114" value="notify user and exit" style="whiteSpace=wrap;html=1;" parent="1" vertex="1">
                    <mxGeometry x="-810" y="1220" width="120" height="60" as="geometry"/>
                </mxCell>
                <mxCell id="116" value="Yes" style="text;html=1;resizable=0;autosize=1;align=center;verticalAlign=middle;points=[];fillColor=none;strokeColor=none;rounded=0;" parent="1" vertex="1">
                    <mxGeometry x="-670" y="1180" width="30" height="20" as="geometry"/>
                </mxCell>
                <mxCell id="125" value="" style="edgeStyle=none;html=1;fontSize=12;" parent="1" source="117" target="123" edge="1">
                    <mxGeometry relative="1" as="geometry"/>
                </mxCell>
                <mxCell id="117" value="use this board" style="whiteSpace=wrap;html=1;" parent="1" vertex="1">
                    <mxGeometry x="-622.5" y="1230" width="120" height="60" as="geometry"/>
                </mxCell>
                <mxCell id="119" value="No" style="text;html=1;resizable=0;autosize=1;align=center;verticalAlign=middle;points=[];fillColor=none;strokeColor=none;rounded=0;" parent="1" vertex="1">
                    <mxGeometry x="-610" y="1190" width="30" height="20" as="geometry"/>
                </mxCell>
                <mxCell id="128" value="" style="edgeStyle=none;html=1;fontSize=12;exitX=0;exitY=1;exitDx=0;exitDy=0;" parent="1" source="123" target="127" edge="1">
                    <mxGeometry relative="1" as="geometry"/>
                </mxCell>
                <mxCell id="131" value="" style="edgeStyle=none;html=1;fontSize=12;entryX=0.5;entryY=0;entryDx=0;entryDy=0;exitX=1;exitY=1;exitDx=0;exitDy=0;" parent="1" source="123" target="130" edge="1">
                    <mxGeometry relative="1" as="geometry"/>
                </mxCell>
                <mxCell id="123" value="did the user&lt;br&gt;provide a role?" style="rhombus;whiteSpace=wrap;html=1;" parent="1" vertex="1">
                    <mxGeometry x="-420" y="1210" width="140" height="100" as="geometry"/>
                </mxCell>
                <mxCell id="126" value="No" style="text;html=1;resizable=0;autosize=1;align=center;verticalAlign=middle;points=[];fillColor=none;strokeColor=none;rounded=0;" parent="1" vertex="1">
                    <mxGeometry x="-400" y="1180" width="30" height="20" as="geometry"/>
                </mxCell>
                <mxCell id="137" value="" style="edgeStyle=none;html=1;fontSize=12;" parent="1" source="127" target="136" edge="1">
                    <mxGeometry relative="1" as="geometry"/>
                </mxCell>
                <mxCell id="127" value="make a new role w/ defaults" style="whiteSpace=wrap;html=1;" parent="1" vertex="1">
                    <mxGeometry x="-510" y="1350" width="120" height="60" as="geometry"/>
                </mxCell>
                <mxCell id="129" value="No" style="text;html=1;resizable=0;autosize=1;align=center;verticalAlign=middle;points=[];fillColor=none;strokeColor=none;rounded=0;" parent="1" vertex="1">
                    <mxGeometry x="-440" y="1300" width="30" height="20" as="geometry"/>
                </mxCell>
                <mxCell id="140" style="edgeStyle=none;html=1;entryX=1;entryY=0;entryDx=0;entryDy=0;fontSize=12;" parent="1" source="130" target="136" edge="1">
                    <mxGeometry relative="1" as="geometry"/>
                </mxCell>
                <mxCell id="130" value="use given role" style="whiteSpace=wrap;html=1;" parent="1" vertex="1">
                    <mxGeometry x="-310" y="1350" width="120" height="60" as="geometry"/>
                </mxCell>
                <mxCell id="132" value="Yes" style="text;html=1;resizable=0;autosize=1;align=center;verticalAlign=middle;points=[];fillColor=none;strokeColor=none;rounded=0;" parent="1" vertex="1">
                    <mxGeometry x="-285" y="1300" width="40" height="20" as="geometry"/>
                </mxCell>
                <mxCell id="142" value="" style="edgeStyle=none;html=1;fontSize=12;" parent="1" source="136" target="141" edge="1">
                    <mxGeometry relative="1" as="geometry"/>
                </mxCell>
                <mxCell id="149" style="edgeStyle=none;html=1;entryX=0.5;entryY=0;entryDx=0;entryDy=0;fontSize=12;" parent="1" source="136" target="147" edge="1">
                    <mxGeometry relative="1" as="geometry"/>
                </mxCell>
                <mxCell id="136" value="did a&lt;br&gt;leaderboard&lt;br&gt;exist?" style="rhombus;whiteSpace=wrap;html=1;" parent="1" vertex="1">
                    <mxGeometry x="-410" y="1460" width="120" height="80" as="geometry"/>
                </mxCell>
                <mxCell id="148" value="" style="edgeStyle=none;html=1;fontSize=12;entryX=0.5;entryY=0;entryDx=0;entryDy=0;" parent="1" source="141" target="147" edge="1">
                    <mxGeometry relative="1" as="geometry"/>
                </mxCell>
                <mxCell id="141" value="make one" style="whiteSpace=wrap;html=1;" parent="1" vertex="1">
                    <mxGeometry x="-610" y="1470" width="120" height="60" as="geometry"/>
                </mxCell>
                <mxCell id="151" value="" style="edgeStyle=none;html=1;fontSize=12;" parent="1" source="147" target="150" edge="1">
                    <mxGeometry relative="1" as="geometry"/>
                </mxCell>
                <mxCell id="147" value="add guild to list of tracked leaderboards" style="whiteSpace=wrap;html=1;" parent="1" vertex="1">
                    <mxGeometry x="-410" y="1630" width="120" height="60" as="geometry"/>
                </mxCell>
                <mxCell id="150" value="exit" style="whiteSpace=wrap;html=1;" parent="1" vertex="1">
                    <mxGeometry x="-410" y="1770" width="120" height="60" as="geometry"/>
                </mxCell>
                <mxCell id="153" value="&lt;h1&gt;&lt;span style=&quot;font-size: 12px&quot;&gt;get the leaderboard&lt;/span&gt;&lt;/h1&gt;&lt;div&gt;does the leaderboard already exist in the database?&lt;br&gt;&lt;/div&gt;&lt;div&gt;&lt;br&gt;&lt;/div&gt;&lt;div&gt;and does the guild already&amp;nbsp;&lt;/div&gt;&lt;div&gt;track it?&lt;/div&gt;" style="text;html=1;strokeColor=none;fillColor=none;spacing=5;spacingTop=-20;whiteSpace=wrap;overflow=hidden;rounded=0;" parent="1" vertex="1">
                    <mxGeometry x="-810" y="1070" width="180" height="190" as="geometry"/>
                </mxCell>
                <mxCell id="154" value="Yes" style="text;html=1;resizable=0;autosize=1;align=center;verticalAlign=middle;points=[];fillColor=none;strokeColor=none;rounded=0;" parent="1" vertex="1">
                    <mxGeometry x="-340" y="1580" width="40" height="20" as="geometry"/>
                </mxCell>
                <mxCell id="155" value="No" style="text;html=1;resizable=0;autosize=1;align=center;verticalAlign=middle;points=[];fillColor=none;strokeColor=none;rounded=0;" parent="1" vertex="1">
                    <mxGeometry x="-460" y="1470" width="30" height="20" as="geometry"/>
                </mxCell>
                <mxCell id="157" value="Yes" style="text;html=1;resizable=0;autosize=1;align=center;verticalAlign=middle;points=[];fillColor=none;strokeColor=none;rounded=0;" parent="1" vertex="1">
                    <mxGeometry x="-520" y="380" width="30" height="20" as="geometry"/>
                </mxCell>
                <mxCell id="158" value="No" style="text;html=1;resizable=0;autosize=1;align=center;verticalAlign=middle;points=[];fillColor=none;strokeColor=none;rounded=0;" parent="1" vertex="1">
                    <mxGeometry x="-670" y="380" width="30" height="20" as="geometry"/>
                </mxCell>
            </root>
        </mxGraphModel>
    </diagram>
</mxfile>